<svg width="192" height="84" viewBox="0 0 192 84" fill="none" xmlns="http://www.w3.org/2000/svg">
<rect x="1" y="1" width="190" height="82" rx="11" fill="white" stroke="#E23EDC" stroke-width="2"/>
<g clip-path="url(#clip0_4_2)">
<path d="M14.5734 41.9278L12.7867 43.718L11 41.9278L12.7867 40.1377L14.5734 41.9278ZM18.9125 37.5803L21.9754 40.6491L23.762 38.859L18.9125 34L14.0629 38.859L15.8496 40.6491L18.9125 37.5803ZM25.0382 40.1377L23.2516 41.9278L25.0382 43.718L26.8249 41.9278L25.0382 40.1377ZM18.9125 46.2754L15.8496 43.2065L14.0629 44.9967L18.9125 49.8557L23.762 44.9967L21.9754 43.2065L18.9125 46.2754ZM18.9125 43.718L20.6992 41.9278L18.9125 40.1377L17.1258 41.9278L18.9125 43.718ZM37.7746 43.8904V43.8656C37.7746 42.6979 37.1549 42.1141 36.1506 41.729C36.7706 41.3812 37.2913 40.8348 37.2913 39.8535V39.8286C37.2913 38.4622 36.2003 37.5803 34.4275 37.5803H30.3984V46.2753H34.5266C36.4854 46.2754 37.7746 45.4804 37.7746 43.8904ZM35.3944 40.1764C35.3944 40.8223 34.8612 41.0956 34.0183 41.0956H32.2579V39.2572H34.1421C34.948 39.2572 35.3944 39.5802 35.3944 40.1516V40.1764ZM35.878 43.6544C35.878 44.3003 35.3697 44.5985 34.5266 44.5985H32.2579V42.6855H34.4645C35.444 42.6855 35.878 43.0457 35.878 43.6295V43.6544ZM41.7784 46.2754V37.5803H39.8692V46.2754H41.7784ZM52.0413 46.2754V37.5803H50.1569V42.9339L46.0904 37.5803H44.3299V46.2753H46.2144V40.7477L50.4173 46.2754H52.0413ZM62.617 46.2754L58.8976 37.5182H57.1372L53.418 46.2754H55.3644L56.1579 44.3252H59.8275L60.6209 46.2754H62.617ZM59.1457 42.6358H56.8398L57.9926 39.8161L59.1457 42.6358ZM71.7174 46.2754V37.5803H69.8328V42.9339L65.7665 37.5803H64.006V46.2753H65.8903V40.7477L70.0932 46.2754H71.7174ZM81.5738 44.8718L80.3589 43.642C79.677 44.2631 79.0696 44.6605 78.0778 44.6605C76.59 44.6605 75.561 43.4184 75.561 41.9278V41.903C75.561 40.4124 76.6147 39.1951 78.0778 39.1951C78.9456 39.1951 79.6275 39.5677 80.297 40.1764L81.5119 38.7727C80.706 37.9777 79.7265 37.4312 78.0901 37.4312C75.4246 37.4312 73.5651 39.4559 73.5651 41.9278V41.9526C73.5651 44.4493 75.4619 46.4243 78.0156 46.4243C79.6894 46.4243 80.681 45.8282 81.5738 44.8718ZM89.7194 46.2754V44.5736H85.0084V42.7476H89.0996V41.0459H85.0084V39.282H89.6575V37.5803H83.1117V46.2753L89.7194 46.2754Z" fill="#F0B90B"/>
<path d="M96.303 39.8615C96.303 39.2791 96.8226 38.8205 97.7131 38.8205C98.5048 38.8205 99.2841 39.1303 100.063 39.7128L100.88 38.5602C100.001 37.8538 98.9996 37.4696 97.7379 37.4696C96.0186 37.4696 94.7815 38.4859 94.7815 39.9979C94.7815 41.609 95.8206 42.1543 97.6636 42.6005C99.2717 42.9723 99.6181 43.3069 99.6181 43.939C99.6181 44.6082 99.0244 45.042 98.0843 45.042C97.008 45.042 96.1794 44.633 95.3506 43.9142L94.4353 45.0048C95.4743 45.9343 96.7235 46.3929 98.0471 46.3929C99.8654 46.3929 101.139 45.4262 101.139 43.7903C101.139 42.3402 100.187 41.6834 98.3564 41.2372C96.6988 40.8406 96.303 40.5432 96.303 39.8615Z" fill="#F0B90B"/>
<path d="M109.67 40.0475V46.269H111.191V37.5936H109.571L106.936 41.6958L104.302 37.5936H102.681V46.269H104.178V40.0723L106.887 44.1373H106.936L109.67 40.0475Z" fill="#F0B90B"/>
<path d="M117.65 37.5316H116.24L112.43 46.269H113.989L114.88 44.1745H118.974L119.852 46.269H121.46L117.65 37.5316ZM118.417 42.8236H115.436L116.921 39.3534L118.417 42.8236Z" fill="#F0B90B"/>
<path d="M130.045 46.269L127.707 42.9847C128.919 42.6501 129.773 41.7825 129.773 40.3449C129.773 38.647 128.548 37.5936 126.557 37.5936H122.698V46.269H124.219V43.245H126.124L128.251 46.269H130.045ZM128.227 40.4317C128.227 41.324 127.534 41.8941 126.445 41.8941H124.219V38.9816H126.433C127.559 38.9816 128.227 39.4774 128.227 40.4317Z" fill="#F0B90B"/>
<path d="M135.014 39.0064H137.76V37.5936H130.734V39.0064H133.48V46.269H135.014V39.0064Z" fill="#F0B90B"/>
<path d="M149.749 44.8809L148.772 43.8894C148.03 44.5834 147.349 45.0172 146.286 45.0172C144.628 45.0172 143.428 43.6292 143.428 41.9189C143.428 40.2086 144.628 38.8453 146.286 38.8453C147.275 38.8453 148.017 39.2791 148.71 39.9235L149.687 38.7957C148.858 38.0025 147.893 37.4448 146.298 37.4448C143.676 37.4448 141.833 39.4649 141.833 41.9436C141.833 44.4471 143.713 46.4177 146.236 46.4177C147.856 46.4177 148.846 45.8228 149.749 44.8809Z" fill="#F0B90B"/>
<path d="M156.754 42.6129V46.269H158.275V37.5936H156.754V41.2H152.622V37.5936H151.101V46.269H152.622V42.6129H156.754Z" fill="#F0B90B"/>
<path d="M164.729 37.5316H163.319L159.509 46.269H161.068L161.958 44.1745H166.053L166.931 46.269H168.539L164.729 37.5316ZM165.496 42.8236H162.515L163.999 39.3534L165.496 42.8236Z" fill="#F0B90B"/>
<path d="M169.863 37.5936V46.269H171.384V37.5936H169.863Z" fill="#F0B90B"/>
<path d="M179.503 43.592L174.865 37.5936H173.455V46.269H174.951V40.097L179.726 46.269H181V37.5936H179.503V43.592Z" fill="#F0B90B"/>
</g>
<defs>
<clipPath id="clip0_4_2">
<rect width="170" height="16" fill="white" transform="translate(11 34)"/>
</clipPath>
</defs>
</svg>
