<svg width="192" height="84" viewBox="0 0 192 84" fill="none" xmlns="http://www.w3.org/2000/svg">
<rect x="1" y="1" width="190" height="82" rx="11" fill="white" stroke="#E23EDC" stroke-width="2"/>
<path fill-rule="evenodd" clip-rule="evenodd" d="M26.2609 30.6306C25.1372 32.8375 25.1372 35.725 25.1372 41.5C25.1372 47.275 25.1372 50.1625 26.2609 52.3694C27.2509 54.3082 28.8289 55.8859 30.768 56.8759C32.9747 58 35.8622 58 41.6372 58C47.4122 58 50.2997 58 52.5064 56.8759C54.4456 55.8859 56.0235 54.3082 57.0135 52.3694C58.1372 50.1625 58.1372 47.275 58.1372 41.5C58.1372 35.725 58.1372 32.8375 57.0135 30.6306C56.0235 28.6919 54.4456 27.1141 52.5064 26.1241C50.2997 25 47.4122 25 41.6372 25C35.8622 25 32.9747 25 30.768 26.1241C28.8289 27.1141 27.2509 28.6919 26.2609 30.6306ZM49.8716 33.8997C50.1608 33.8997 50.4334 34.0183 50.6349 34.2194C50.8364 34.4257 50.9493 34.7041 50.9441 34.9876C50.8928 38.0608 50.7739 40.412 50.5524 42.2734C50.3362 44.1349 50.0114 45.5167 49.5216 46.6357C49.1916 47.3833 48.7834 48.002 48.3041 48.528C47.6597 49.2241 46.9224 49.7294 46.1183 50.209C45.7744 50.4146 45.4166 50.6176 45.0414 50.8307C44.2416 51.2851 43.361 51.7848 42.3641 52.4519C42.0037 52.6942 41.5339 52.6942 41.1735 52.4519C40.1609 51.777 39.269 51.2711 38.4614 50.813C38.2825 50.7112 38.1071 50.6116 37.9351 50.5132C36.9912 49.9666 36.141 49.4458 35.3985 48.693C34.9035 48.198 34.4753 47.5947 34.1349 46.878C33.6712 45.9189 33.3559 44.7588 33.1241 43.2583C32.8149 41.2525 32.6603 38.628 32.6039 34.9876C32.5987 34.7041 32.7064 34.4257 32.9078 34.2194C33.1084 34.0183 33.3872 33.8997 33.6764 33.8997H34.1193C35.4862 33.9049 38.5022 33.7708 41.1109 31.7392C41.4983 31.4402 42.0393 31.4402 42.4266 31.7392C45.0353 33.7708 48.0514 33.9049 49.4235 33.8997H49.8716ZM47.4739 45.9499C47.8091 45.2589 48.0878 44.305 48.2989 42.9334C48.5516 41.2938 48.7062 39.0662 48.7791 36.0344C47.1699 35.988 44.4066 35.6786 41.771 33.9049C39.1362 35.6734 36.3728 35.9828 34.7689 36.0344C34.8262 38.5403 34.9391 40.4894 35.1197 42.0208C35.3264 43.7636 35.6199 44.9444 35.9864 45.7745C36.2287 46.3263 36.4962 46.7233 36.8166 47.0739C37.2439 47.5432 37.7858 47.9299 38.5231 48.3733C38.8287 48.5568 39.1657 48.7477 39.533 48.9555C40.1869 49.3256 40.9355 49.7494 41.771 50.2811C42.5916 49.7581 43.3298 49.3386 43.9759 48.9712C44.1704 48.8605 44.3571 48.7544 44.5351 48.6517C45.4426 48.1309 46.113 47.6978 46.6133 47.1925C46.9485 46.847 47.2211 46.4707 47.4739 45.9499Z" fill="#3375BB"/>
<path d="M71.0654 38.2069H67.3694V36.0289H77.4344V38.2069H73.7384V47.5789H71.0654V38.2069ZM80.4608 39.8734C80.7691 39.4444 81.1816 39.1199 81.6983 38.8999C82.2263 38.68 82.8316 38.5699 83.5133 38.5699V40.9459C83.2276 40.924 83.0348 40.9129 82.9358 40.9129C82.1985 40.9129 81.621 41.122 81.2033 41.5399C80.7856 41.947 80.5763 42.5629 80.5763 43.3879V47.5789H78.0023V38.7019H80.4608V39.8734ZM93.5566 38.7019V47.5789H91.1146V46.5229C90.7733 46.9079 90.366 47.2049 89.8936 47.4139C89.4203 47.6119 88.9088 47.7109 88.3591 47.7109C87.1928 47.7109 86.2688 47.3755 85.5871 46.7044C84.9045 46.0334 84.5641 45.0379 84.5641 43.7179V38.7019H87.1381V43.3384C87.1381 44.7685 87.7373 45.4834 88.9366 45.4834C89.5523 45.4834 90.0473 45.2854 90.4216 44.8894C90.795 44.4824 90.9826 43.8829 90.9826 43.0909V38.7019H93.5566ZM98.4328 47.7109C97.6955 47.7109 96.9747 47.623 96.2713 47.4469C95.567 47.26 95.006 47.029 94.5883 46.7539L95.4463 44.9059C95.8423 45.1589 96.3208 45.3679 96.8818 45.5329C97.4428 45.6869 97.9925 45.7639 98.5318 45.7639C99.6208 45.7639 100.165 45.4945 100.165 44.9554C100.165 44.7025 100.017 44.521 99.7198 44.4109C99.4228 44.3009 98.966 44.2075 98.3503 44.1304C97.6243 44.0204 97.0242 43.894 96.5518 43.7509C96.0785 43.6079 95.666 43.3549 95.3143 42.9919C94.973 42.6289 94.8028 42.112 94.8028 41.4409C94.8028 40.8799 94.9617 40.3849 95.2813 39.9559C95.6113 39.5159 96.0837 39.175 96.7003 38.9329C97.3273 38.6909 98.0637 38.5699 98.9113 38.5699C99.5383 38.5699 100.159 38.6414 100.776 38.7844C101.403 38.9164 101.92 39.1034 102.327 39.3454L101.469 41.1769C100.687 40.7369 99.8353 40.5169 98.9113 40.5169C98.3607 40.5169 97.9482 40.594 97.6738 40.7479C97.3985 40.9019 97.2613 41.0999 97.2613 41.3419C97.2613 41.617 97.4098 41.8094 97.7068 41.9194C98.0038 42.0295 98.4762 42.1339 99.1258 42.2329C99.8518 42.3539 100.446 42.4859 100.908 42.6289C101.37 42.7609 101.771 43.0084 102.112 43.3714C102.453 43.7344 102.624 44.2405 102.624 44.8894C102.624 45.4394 102.459 45.9289 102.129 46.3579C101.799 46.7869 101.314 47.1224 100.677 47.3644C100.05 47.5954 99.3012 47.7109 98.4328 47.7109ZM109.442 47.1499C109.189 47.3369 108.876 47.4799 108.501 47.5789C108.138 47.6669 107.754 47.7109 107.346 47.7109C106.29 47.7109 105.471 47.4415 104.888 46.9024C104.316 46.3634 104.03 45.5714 104.03 44.5264V40.8799H102.66V38.8999H104.03V36.7384H106.604V38.8999H108.815V40.8799H106.604V44.4934C106.604 44.8675 106.698 45.1589 106.884 45.3679C107.082 45.5659 107.358 45.6649 107.709 45.6649C108.117 45.6649 108.463 45.5549 108.749 45.3349L109.442 47.1499ZM132.208 36.0289L128.43 47.5789H125.559L123.018 39.7579L120.394 47.5789H117.54L113.745 36.0289H116.517L119.124 44.1469L121.846 36.0289H124.321L126.961 44.2129L129.651 36.0289H132.208ZM135.944 38.5699C137.319 38.5699 138.375 38.8999 139.112 39.5599C139.849 40.2089 140.218 41.1934 140.218 42.5134V47.5789H137.809V46.4734C137.324 47.2984 136.423 47.7109 135.103 47.7109C134.42 47.7109 133.826 47.5954 133.321 47.3644C132.826 47.1334 132.446 46.8145 132.182 46.4074C131.918 46.0004 131.786 45.5384 131.786 45.0214C131.786 44.1964 132.094 43.5475 132.71 43.0744C133.337 42.6014 134.299 42.3649 135.598 42.3649H137.644C137.644 41.8039 137.473 41.3749 137.132 41.0779C136.791 40.7699 136.279 40.6159 135.598 40.6159C135.124 40.6159 134.657 40.693 134.195 40.8469C133.744 40.99 133.359 41.188 133.04 41.4409L132.116 39.6424C132.6 39.3014 133.177 39.0374 133.849 38.8504C134.53 38.6635 135.229 38.5699 135.944 38.5699ZM135.746 45.9784C136.186 45.9784 136.576 45.8794 136.918 45.6814C137.258 45.4724 137.5 45.1699 137.644 44.7739V43.8664H135.878C134.822 43.8664 134.294 44.2129 134.294 44.9059C134.294 45.2359 134.42 45.4999 134.674 45.6979C134.938 45.8849 135.295 45.9784 135.746 45.9784ZM142.052 35.3359H144.626V47.5789H142.052V35.3359ZM146.52 35.3359H149.094V47.5789H146.52V35.3359ZM159.683 43.1734C159.683 43.2064 159.667 43.4374 159.634 43.8664H152.918C153.039 44.4164 153.326 44.851 153.776 45.1699C154.227 45.4889 154.788 45.6484 155.459 45.6484C155.921 45.6484 156.329 45.5824 156.68 45.4504C157.043 45.3074 157.379 45.0874 157.687 44.7904L159.056 46.2754C158.22 47.2324 156.999 47.7109 155.393 47.7109C154.392 47.7109 153.507 47.5184 152.737 47.1334C151.967 46.7374 151.373 46.1929 150.955 45.4999C150.537 44.8069 150.328 44.0204 150.328 43.1404C150.328 42.2714 150.531 41.4904 150.938 40.7974C151.356 40.0934 151.923 39.5489 152.638 39.1639C153.364 38.7679 154.172 38.5699 155.063 38.5699C155.933 38.5699 156.719 38.7569 157.423 39.1309C158.127 39.505 158.677 40.0439 159.073 40.7479C159.48 41.4409 159.683 42.2494 159.683 43.1734ZM155.08 40.5169C154.497 40.5169 154.007 40.6819 153.611 41.0119C153.215 41.3419 152.973 41.7929 152.885 42.3649H157.258C157.17 41.8039 156.928 41.3584 156.532 41.0284C156.136 40.6874 155.652 40.5169 155.08 40.5169ZM166.627 47.1499C166.375 47.3369 166.061 47.4799 165.687 47.5789C165.324 47.6669 164.939 47.7109 164.532 47.7109C163.476 47.7109 162.657 47.4415 162.073 46.9024C161.502 46.3634 161.215 45.5714 161.215 44.5264V40.8799H159.846V38.8999H161.215V36.7384H163.789V38.8999H166V40.8799H163.789V44.4934C163.789 44.8675 163.883 45.1589 164.07 45.3679C164.268 45.5659 164.543 45.6649 164.895 45.6649C165.302 45.6649 165.649 45.5549 165.934 45.3349L166.627 47.1499Z" fill="#3375BB"/>
</svg>
