<svg width="192" height="84" viewBox="0 0 192 84" fill="none" xmlns="http://www.w3.org/2000/svg">
<rect x="1" y="1" width="190" height="82" rx="11" fill="white" stroke="#E23EDC" stroke-width="2"/>
<g clip-path="url(#clip0_4_13)">
<path fill-rule="evenodd" clip-rule="evenodd" d="M64.9457 29.5146H62.1634V48.0103C63.429 48.4583 65.0032 48.8218 66.8034 48.8218C71.4148 48.8218 74.0859 46.1351 74.0859 42.1343C74.0859 38.1612 71.386 35.8673 67.7866 35.8673C66.6901 35.8673 65.5367 36.1749 64.9462 36.4826L64.9457 29.5146ZM45.0856 30.6348C44.1579 30.6348 43.3418 31.3904 43.3418 32.341C43.3418 33.3214 44.1579 34.1047 45.0851 34.1047C46.0134 34.1047 46.829 33.3209 46.829 32.3415C46.829 31.3904 46.0134 30.6348 45.0856 30.6348ZM27.8583 46.0268C27.2509 46.2635 26.6111 46.388 25.9181 46.388C23.4996 46.388 21.8116 44.821 21.8116 42.3591C21.8116 39.757 23.5555 38.3291 25.8053 38.3291C26.4668 38.3291 27.1083 38.4429 27.7319 38.691C28.0249 37.9719 28.4233 37.3003 28.914 36.6982C27.8799 36.1484 26.854 35.8673 25.5526 35.8673C21.8962 35.8667 19 38.3562 19 42.3586C19 46.3323 21.7557 48.8218 25.5531 48.8218C26.8296 48.8218 28.0009 48.5547 29.119 47.9567C28.6044 47.3798 28.1794 46.7296 27.8583 46.0268ZM35.4954 35.8667C39.2353 35.8667 41.9352 38.497 41.9352 42.3586C41.9352 46.192 39.2347 48.8218 35.4954 48.8218C31.7836 48.8218 29.0843 46.192 29.0843 42.3586C29.0843 38.497 31.7836 35.8667 35.4954 35.8667ZM31.8948 42.3586C31.8948 39.8404 33.4131 38.2452 35.4943 38.2452C37.6318 38.2452 39.1219 39.8404 39.1219 42.3586C39.1219 44.8492 37.6318 46.4433 35.4943 46.4433C33.4136 46.4433 31.8948 44.8492 31.8948 42.3586ZM43.7078 48.5423H46.4912V36.1462H43.7078V48.5423ZM48.9199 36.93C50.6638 36.2583 52.8014 35.8667 54.6288 35.8667C57.8064 35.8667 59.8317 37.0698 59.8317 40.5678V48.5423H57.076V40.8192C57.076 39.0284 55.9513 38.3844 54.4037 38.3844C53.4195 38.3844 52.4359 38.5241 51.7039 38.7478V48.5412H48.9199V36.9311V36.93ZM64.9468 46.1925C65.4814 46.3593 66.1853 46.4433 66.887 46.4433C69.4464 46.4433 71.2749 45.0447 71.2749 42.1901C71.2749 39.7835 69.5597 38.3568 67.4504 38.3568C66.3539 38.3568 65.5102 38.6368 64.9468 38.945V46.1925ZM79.7389 38.2733C81.1162 38.2733 82.1292 38.8881 82.1292 40.2315V41.2677H80.7507C77.1513 41.2677 74.9861 42.4983 74.9861 45.016C74.9861 47.8148 77.3487 48.7941 80.5827 48.7941C81.9887 48.7941 83.6757 48.598 84.8567 48.2904V40.0912C84.8567 36.9853 82.916 35.8662 80.189 35.8662C78.6414 35.8662 77.2359 36.2583 76.1394 36.8731V39.2798C77.1795 38.692 78.3046 38.2733 79.7389 38.2733ZM82.1286 43.1142H80.9481C79.0069 43.1142 77.7412 43.6732 77.7412 44.9326C77.7412 46.2196 78.9228 46.7233 80.6103 46.7233C81.0322 46.7233 81.6227 46.6675 82.1286 46.583V43.1142ZM90.6762 46.5836C89.4111 46.5836 88.0338 46.0517 86.8804 45.1845V47.8148C87.8087 48.4307 89.2706 48.8218 90.7336 48.8218C93.433 48.8218 95.4296 47.6463 95.4296 45.0447C95.4296 42.806 94.1927 41.7427 91.3513 41.1268C89.917 40.7358 89.3834 40.3154 89.3834 39.504C89.3834 38.6926 90.0298 38.1054 91.2396 38.1054C92.5605 38.1054 93.6293 38.5815 94.7257 39.3643V36.8184C93.6857 36.1749 92.5605 35.8667 91.1544 35.8667C88.6237 35.8667 86.7112 37.0974 86.7112 39.6167C86.7112 41.7709 87.8087 42.806 90.3958 43.3937C91.9987 43.813 92.7297 44.1764 92.7297 45.1845C92.7297 46.1638 91.9141 46.5836 90.6762 46.5836ZM99.2378 42.9745V43.0297C99.407 45.2397 101.318 46.4433 103.259 46.4433C104.974 46.4433 106.212 46.0517 107.449 45.2403V47.675C106.324 48.4583 104.665 48.8218 103.062 48.8218C99.182 48.8218 96.5379 46.3593 96.5379 42.4425C96.5379 38.497 99.1245 35.8667 102.556 35.8667C106.184 35.8667 107.899 38.1894 107.899 41.5748V42.9745H99.2378ZM102.473 38.1894C104.273 38.1894 105.229 39.2521 105.285 41.1837H99.324C99.6895 39.309 100.87 38.1894 102.473 38.1894Z" fill="#1452F5"/>
<path fill-rule="evenodd" clip-rule="evenodd" d="M117.832 29.4523C117.832 29.3323 117.88 29.2173 117.965 29.1325C118.05 29.0477 118.165 29 118.285 29C118.405 29 118.52 29.0477 118.605 29.1325C118.69 29.2173 118.738 29.3323 118.738 29.4523V54.5477C118.738 54.6677 118.69 54.7827 118.605 54.8675C118.52 54.9524 118.405 55 118.285 55C118.165 55 118.05 54.9524 117.965 54.8675C117.88 54.7827 117.832 54.6677 117.832 54.5477V29.4523Z" fill="#AAB4C0"/>
<path d="M135.043 36.1787L132.256 47.376L129.343 36.1787H128.002L131.376 48.5645H133.095L135.777 37.6591L138.459 48.5645H140.177L143.551 36.1787H142.273L139.339 47.376L136.573 36.1787H135.043ZM148.849 43.3098H147.822C145.035 43.3098 143.379 44.2479 143.379 46.0414C143.379 47.9594 145.035 48.7313 147.508 48.7313C148.283 48.7313 149.268 48.6268 150.106 48.3976V42.1213C150.106 40.0776 148.912 39.2646 147.068 39.2646C145.999 39.2646 145.014 39.5565 144.238 39.9736V41.162C145.077 40.7244 145.873 40.4324 146.921 40.4324C148.094 40.4324 148.849 41.0369 148.849 42.2048V43.3098ZM148.849 47.5635C148.409 47.6469 147.948 47.6886 147.571 47.6886C145.894 47.6886 144.637 47.2509 144.637 46.0414C144.637 44.8318 146.02 44.3313 147.906 44.3313H148.849V47.5635ZM153.345 34.3853H152.088V48.565H153.345V34.3853ZM156.736 34.3853H155.478V48.565H156.736V34.3853ZM166.35 44.0811V43.2263C166.35 40.641 164.82 39.2646 162.515 39.2646C160.064 39.2646 158.178 41.2872 158.178 44.0188C158.178 46.9795 160.189 48.773 162.83 48.773C163.961 48.773 165.135 48.5022 165.952 47.8971V46.6459C165.03 47.3338 164.129 47.668 162.83 47.668C161.048 47.668 159.435 46.3539 159.435 44.1228V44.0811H166.35ZM159.519 43.0389C159.875 41.3289 161.027 40.3696 162.452 40.3696C163.982 40.3696 165.009 41.1415 165.093 43.0389H159.519ZM166.589 40.5364H167.993V46.2077C167.993 48.0845 168.978 48.773 170.299 48.773C170.982 48.7793 171.658 48.622 172.268 48.3142V47.2092C171.64 47.5218 171.157 47.7097 170.571 47.7097C169.711 47.7097 169.25 47.2509 169.25 46.0831V40.5364H171.828V39.4731H169.25V37.2631H167.993V39.4731H166.589V40.5364Z" fill="#202A36"/>
</g>
<defs>
<clipPath id="clip0_4_13">
<rect width="154" height="26" fill="white" transform="translate(19 29)"/>
</clipPath>
</defs>
</svg>
