<svg width="44" height="44" viewBox="0 0 44 44" fill="none" xmlns="http://www.w3.org/2000/svg">
<circle cx="22" cy="22" r="21.5" fill="white" stroke="black"/>
<path d="M14.3547 17.2808C14.8027 16.8814 15.4935 16.9118 15.9033 17.3483L21.2113 22.9986C21.3188 23.1132 21.4495 23.2046 21.5949 23.2668C21.7403 23.3291 21.8972 23.3609 22.0558 23.3602C22.2143 23.3595 22.371 23.3263 22.5158 23.2628C22.6606 23.1993 22.7904 23.1068 22.897 22.9913L28.085 17.3629C28.4907 16.9225 29.1821 16.8853 29.6335 17.2808C29.7402 17.3741 29.8269 17.4873 29.8889 17.6138C29.9508 17.7403 29.9866 17.8777 29.9942 18.0179C30.0019 18.1581 29.9812 18.2985 29.9334 18.4308C29.8857 18.5631 29.8117 18.6848 29.7158 18.7888L23.7507 25.2604C23.5377 25.4915 23.2781 25.6765 22.9886 25.8035C22.699 25.9306 22.3858 25.997 22.0688 25.9984C21.7518 25.9999 21.4379 25.9365 21.1471 25.8121C20.8564 25.6878 20.5951 25.5053 20.3798 25.2761L14.2867 18.7894C14.1899 18.6863 14.1148 18.5653 14.0658 18.4334C14.0167 18.3015 13.9947 18.1614 14.0011 18.0211C14.0074 17.8808 14.0419 17.7432 14.1026 17.6161C14.1633 17.489 14.249 17.3751 14.3547 17.2808Z" fill="black"/>
</svg>
