<svg width="107" height="76" viewBox="0 0 107 76" fill="none" xmlns="http://www.w3.org/2000/svg">
<path fill-rule="evenodd" clip-rule="evenodd" d="M16.3116 34.7675C16.5685 34.791 16.8275 34.7613 17.0721 34.6804C17.3168 34.5994 17.5416 34.4688 17.7323 34.2971C17.9229 34.1254 18.0752 33.9163 18.1795 33.6831C18.2837 33.4499 18.3375 33.1979 18.3375 32.943C18.3375 32.6881 18.2837 32.436 18.1795 32.2028C18.0752 31.9696 17.9229 31.7605 17.7323 31.5888C17.5416 31.4171 17.3168 31.2866 17.0721 31.2056C16.8275 31.1246 16.5685 31.0949 16.3116 31.1185H1.91808C1.45782 31.1606 1.03009 31.3711 0.718695 31.7086C0.407302 32.0461 0.234695 32.4863 0.234695 32.943C0.234695 33.3996 0.407302 33.8399 0.718695 34.1773C1.03009 34.5148 1.45782 34.7253 1.91808 34.7675H16.3116ZM12.1425 48.6118C12.1425 49.6233 12.9734 50.4442 13.9972 50.4442H28.3907C28.8509 50.402 29.2787 50.1915 29.5901 49.854C29.9014 49.5165 30.0741 49.0763 30.0741 48.6196C30.0741 48.163 29.9014 47.7228 29.5901 47.3853C29.2787 47.0478 28.8509 46.8373 28.3907 46.7951H13.9972C13.7544 46.7931 13.5136 46.8385 13.2886 46.9289C13.0637 47.0193 12.8591 47.1528 12.6867 47.3217C12.5143 47.4906 12.3774 47.6915 12.284 47.913C12.1906 48.1344 12.1425 48.3719 12.1425 48.6118ZM24.2375 38.949H8.25882C7.76693 38.949 7.29519 39.142 6.94737 39.4856C6.59956 39.8293 6.40416 40.2953 6.40416 40.7813C6.40416 41.2673 6.59956 41.7333 6.94737 42.077C7.29519 42.4206 7.76693 42.6136 8.25882 42.6136H24.2216C24.4785 42.6372 24.7376 42.6075 24.9822 42.5265C25.2268 42.4455 25.4517 42.315 25.6423 42.1433C25.833 41.9716 25.9853 41.7625 26.0895 41.5293C26.1938 41.2961 26.2476 41.044 26.2476 40.7891C26.2476 40.5342 26.1938 40.2822 26.0895 40.049C25.9853 39.8158 25.833 39.6067 25.6423 39.435C25.4517 39.2633 25.2268 39.1327 24.9822 39.0517C24.7376 38.9708 24.4785 38.9411 24.2216 38.9646L24.2375 38.949ZM3.47156 42.6293C3.96345 42.6293 4.43519 42.4363 4.78301 42.0926C5.13083 41.749 5.32623 41.2829 5.32623 40.797C5.32623 40.311 5.13083 39.8449 4.78301 39.5013C4.43519 39.1577 3.96345 38.9646 3.47156 38.9646H2.74238C2.25049 38.9646 1.77875 39.1577 1.43093 39.5013C1.08311 39.8449 0.887711 40.311 0.887711 40.797C0.887711 41.2829 1.08311 41.749 1.43093 42.0926C1.77875 42.4363 2.25049 42.6293 2.74238 42.6293H3.47156ZM36.4593 56.4423C36.4593 55.4387 35.6363 54.6256 34.6204 54.6256H3.55082C3.09056 54.6678 2.66283 54.8783 2.35144 55.2158C2.04004 55.5533 1.86744 55.9935 1.86744 56.4502C1.86744 56.9068 2.04004 57.347 2.35144 57.6845C2.66283 58.022 3.09056 58.2325 3.55082 58.2747H34.6204C34.8633 58.2747 35.1037 58.2272 35.3278 58.1349C35.5519 58.0426 35.7554 57.9074 35.9263 57.737C36.0973 57.5667 36.2324 57.3646 36.3239 57.1423C36.4153 56.9201 36.4614 56.6822 36.4593 56.4423Z" fill="#231F20"/>
<path fill-rule="evenodd" clip-rule="evenodd" d="M93.6528 54.4064C87.9778 52.1512 85.1879 50.8513 82.8576 52.9969C84.0465 50.6634 83.571 50.5224 82.5723 48.7997C80.5908 45.3386 75.328 39.6694 73.5209 28.8633C75.0564 24.7873 76.1199 20.5528 76.6913 16.2405C76.6913 16.2405 77.8009 13.1083 72.9502 14.6744C69.938 16.505 66.7526 18.0418 63.4391 19.2631C57.3996 18.5583 48.5384 14.2515 45.2729 7.57994C45.2729 7.57994 47.9994 1.95763 45.6216 0.657766C44.0365 -0.234912 39.0907 4.79227 39.0907 4.79227L23.0645 23.2566L21.828 25.5275C21.5587 26.0169 21.4378 26.5726 21.48 27.1282C21.5222 27.6837 21.7256 28.2154 22.0658 28.6597C26.3141 34.2506 43.0536 56.2857 52.5965 67.9375C25.3154 68.1567 10.5732 72.2913 21.0354 73.7321C29.5954 74.9066 49.1408 74.5621 63.8354 74.5151C65.5461 75.0058 67.2885 75.383 69.0507 75.6427L93.6528 75.8776C96.8231 75.7054 99.7399 75.4704 102.038 75.2199C102.784 75.1387 103.491 74.8559 104.084 74.4028C104.677 73.9496 105.132 73.3436 105.399 72.6515C108.046 65.651 103.877 58.4469 93.6528 54.4064ZM44.512 40.9849L43.6877 22.1917L49.2676 33.7182L55.2754 31.3377L56.8606 49.5045L50.5199 38.1972L44.512 40.9849Z" fill="#231F20"/>
</svg>
